<?xml version="1.0" standalone="no"?>
<!DOCTYPE svg PUBLIC "-//W3C//DTD SVG 20010904//EN"
 "http://www.w3.org/TR/2001/REC-SVG-20010904/DTD/svg10.dtd">
<svg version="1.0" xmlns="http://www.w3.org/2000/svg"
 width="660.000000pt" height="710.000000pt" viewBox="0 0 660.000000 710.000000"
 preserveAspectRatio="xMidYMid meet">

<g transform="translate(0.000000,710.000000) scale(0.100000,-0.100000)"
fill="#000000" stroke="none">
<path d="M0 6295 c1 -534 4 -805 11 -805 5 0 19 -9 31 -19 l20 -20 -33 -9 -34
-10 47 -1 c39 -1 46 -4 41 -17 -5 -13 -1 -15 18 -10 23 7 23 6 5 -8 -11 -9
-34 -19 -53 -22 -18 -3 -33 -10 -33 -15 0 -5 13 -6 30 -2 46 9 37 -14 -10 -27
-22 -6 -40 -16 -40 -21 0 -7 10 -9 27 -4 23 5 25 4 14 -9 -8 -9 -19 -16 -25
-16 -6 0 -12 -17 -13 -40 -1 -34 1 -40 18 -40 11 0 33 7 50 15 21 11 34 13 47
6 11 -7 12 -10 4 -11 -8 0 -38 -7 -67 -15 l-52 -16 0 -42 c0 -23 5 -46 11 -50
8 -6 8 -10 -2 -14 -17 -7 -15 -24 3 -17 8 4 15 1 15 -5 0 -6 -7 -11 -15 -11
-12 0 -14 -48 -14 -332 0 -183 3 -326 6 -318 3 8 12 21 21 28 11 8 12 12 3 12
-23 0 9 30 33 31 21 0 21 0 -1 9 -30 12 -30 54 -2 74 22 15 17 41 -7 32 -8 -3
-14 0 -14 7 0 27 27 47 83 62 72 19 136 46 120 52 -6 2 -30 -5 -52 -16 -22
-12 -53 -21 -68 -21 -27 1 -27 1 7 14 76 29 93 37 87 42 -3 4 -20 1 -38 -5
-18 -6 -34 -9 -37 -7 -7 7 50 32 103 45 27 7 57 18 65 24 8 6 6 2 -4 -11 -17
-19 -17 -22 -3 -22 10 0 17 5 17 10 0 6 9 10 20 10 12 0 35 7 51 16 17 8 37
13 45 10 8 -3 14 -1 14 4 0 6 7 10 15 10 18 0 20 -16 3 -23 -10 -4 -10 -6 0
-6 7 -1 10 -5 7 -11 -3 -5 -2 -10 4 -10 15 0 24 20 9 20 -8 0 -6 5 5 11 9 5
17 17 17 26 0 11 5 13 18 8 39 -17 65 -18 60 -4 -3 8 1 24 9 34 11 14 17 16
20 8 9 -25 41 -13 62 22 27 46 56 47 71 0 13 -41 8 -62 -25 -101 -24 -28 -24
-28 -5 -49 11 -12 20 -32 20 -45 0 -23 1 -23 23 7 13 18 32 47 42 67 11 19 28
37 40 38 32 5 85 -14 96 -35 8 -14 14 -16 24 -7 15 13 55 -6 55 -26 0 -19 -36
-45 -54 -38 -9 3 -16 2 -16 -4 0 -6 -3 -17 -6 -26 -5 -13 2 -16 35 -16 30 0
41 -4 41 -15 0 -8 -4 -15 -10 -15 -5 0 -20 -12 -34 -27 -23 -25 -24 -28 -10
-61 15 -38 11 -54 -14 -50 -13 2 -16 -4 -14 -29 3 -23 -1 -33 -11 -33 -19 0
-15 -55 7 -79 11 -12 14 -21 7 -26 -6 -3 -11 -20 -11 -36 0 -24 -6 -33 -30
-43 l-30 -12 30 -29 c16 -16 30 -37 30 -48 0 -20 -37 -56 -57 -57 -7 0 -13 -5
-13 -12 0 -20 -43 -102 -67 -128 -30 -32 -23 -35 22 -10 29 16 40 18 51 9 8
-6 25 -8 40 -5 22 6 25 4 20 -9 -3 -9 1 -18 10 -22 13 -5 13 -8 -2 -24 -13
-14 -18 -38 -18 -84 -1 -36 2 -65 6 -65 5 0 8 -9 8 -20 0 -13 -7 -20 -20 -20
-11 0 -20 -5 -20 -11 0 -7 -7 -17 -16 -24 -13 -9 -14 -16 -6 -31 10 -18 11
-18 17 -1 9 23 32 22 45 -2 13 -26 13 -41 -2 -41 -7 0 -14 -14 -15 -30 -1 -17
-10 -44 -19 -60 -15 -24 -16 -33 -6 -55 11 -24 10 -27 -18 -36 -31 -11 -41
-29 -15 -29 22 0 18 -14 -14 -49 -30 -32 -19 -43 19 -19 32 20 34 1 2 -30 -16
-16 -37 -41 -47 -56 -12 -17 -23 -25 -35 -21 -9 3 -24 -3 -34 -14 -19 -21 -8
-35 18 -25 29 11 17 -15 -14 -31 -17 -9 -66 -45 -111 -81 -71 -58 -134 -92
-147 -79 -10 9 11 25 35 25 15 0 27 7 29 18 3 9 19 26 37 37 17 11 42 27 55
35 22 14 30 28 17 31 -23 5 -70 -17 -109 -51 -26 -22 -52 -40 -58 -40 -6 0
-31 -16 -55 -36 -24 -20 -47 -34 -50 -30 -4 3 -21 -5 -39 -19 -18 -14 -35 -25
-38 -25 -3 0 -15 -9 -26 -20 -21 -21 -60 -27 -60 -10 0 6 7 10 16 10 9 0 26
10 38 23 11 12 36 29 54 36 18 8 48 31 66 52 18 22 42 39 53 39 19 0 52 23
102 70 9 9 40 27 69 40 28 14 54 31 57 39 10 24 -4 25 -29 2 -14 -13 -30 -21
-38 -19 -7 3 -18 0 -25 -6 -34 -30 -43 -36 -56 -36 -7 0 -28 -16 -47 -35 -19
-19 -38 -35 -42 -35 -13 0 -9 40 5 40 15 1 81 60 74 67 -3 3 -12 0 -19 -7 -7
-6 -28 -20 -46 -31 -18 -10 -36 -29 -41 -42 -5 -12 -21 -36 -36 -54 -22 -27
-32 -31 -56 -26 -22 4 -29 2 -29 -10 0 -16 -26 -30 -41 -21 -5 3 -9 14 -9 25
0 11 -4 18 -10 14 -5 -3 -7 -12 -4 -19 7 -18 -51 -29 -77 -16 -26 15 -26 43 1
35 15 -5 18 -3 14 9 -4 9 -14 13 -31 10 -15 -3 -30 0 -34 8 -11 18 0 30 22 23
11 -4 19 -2 19 5 0 6 4 9 9 5 5 -3 12 -1 16 5 3 5 -3 15 -15 22 -23 15 -27 33
-5 24 9 -3 15 0 15 8 0 8 13 28 29 45 17 18 28 38 24 47 -3 7 -1 14 4 14 5 0
9 10 10 22 1 11 7 24 12 27 12 8 3 51 -10 51 -5 0 -9 4 -9 8 0 5 21 13 48 19
l47 10 -37 2 c-36 1 -37 2 -27 27 6 19 6 37 -2 61 -10 31 -14 34 -39 28 -16
-3 -31 -2 -35 4 -4 7 7 11 29 11 20 0 36 4 36 9 0 5 14 12 31 16 23 5 30 12
28 28 0 12 0 25 1 30 1 4 3 10 4 15 1 4 5 13 9 20 5 6 4 12 -2 12 -5 0 -11 -5
-13 -10 -2 -6 -21 -13 -43 -16 -34 -5 -38 -3 -25 8 9 7 16 23 17 36 1 18 -2
22 -16 17 -25 -8 -34 18 -13 38 30 28 44 48 38 54 -3 4 -14 -1 -23 -9 -31 -26
-53 -30 -53 -8 0 13 7 20 20 20 11 0 20 4 20 9 0 12 -39 8 -48 -5 -12 -18 -50
-35 -57 -25 -3 6 4 15 15 21 11 6 20 15 20 20 0 19 -32 10 -58 -17 -15 -16
-24 -24 -20 -18 14 17 8 44 -13 55 -16 9 -18 14 -8 26 13 16 14 15 -28 19
l-33 3 0 -798 c0 -633 2 -799 12 -803 10 -4 10 -6 1 -6 -18 -1 -17 -92 2 -117
13 -17 14 -18 15 -1 0 10 7 20 16 24 13 5 15 15 9 49 -5 37 -4 43 9 38 9 -4
18 0 22 10 3 9 12 16 19 16 25 0 27 20 3 40 -22 19 -22 19 -2 20 11 0 29 6 39
14 19 14 19 15 -8 27 -34 15 -35 39 -2 39 14 0 25 -4 25 -10 0 -5 7 -10 15
-10 8 0 15 7 15 15 0 9 -7 15 -17 13 -31 -5 -26 30 6 47 28 14 36 25 32 48 0
4 7 7 17 7 17 0 112 85 112 101 0 5 9 9 20 9 11 0 20 6 21 13 0 20 58 60 76
52 15 -5 15 -7 3 -15 -28 -18 1 -23 35 -7 20 9 40 17 46 17 5 0 26 16 46 36
33 33 39 36 76 30 23 -4 45 -2 52 4 13 11 65 4 65 -9 0 -4 -11 -13 -25 -19
-16 -7 -23 -17 -19 -27 8 -19 18 -19 34 0 16 20 40 19 40 -1 0 -12 6 -15 24
-10 18 4 28 1 35 -11 7 -14 10 -5 9 35 -1 55 11 79 35 69 22 -8 26 -63 9 -159
-15 -95 -8 -124 29 -113 9 3 20 1 24 -5 12 -20 35 10 35 46 0 40 9 47 44 31
30 -14 32 -24 11 -54 -10 -15 -12 -24 -4 -28 6 -4 8 -13 5 -21 -3 -7 -1 -16 3
-19 5 -2 12 10 15 28 4 17 17 42 30 54 25 24 25 73 0 73 -22 0 -17 57 8 85 12
14 25 25 30 25 15 0 8 -53 -9 -72 -16 -18 -15 -19 6 -34 12 -9 21 -23 19 -32
-1 -10 5 -28 15 -42 23 -34 21 -59 -8 -85 -19 -19 -32 -22 -65 -18 -39 5 -40
5 -38 -21 1 -15 15 -42 31 -59 26 -29 28 -30 33 -11 3 11 20 26 38 32 18 7 51
29 73 50 38 36 186 142 198 142 9 0 98 62 110 76 6 7 26 14 45 15 19 2 40 7
47 12 7 5 67 8 135 8 104 -1 125 -4 136 -19 12 -16 14 -16 23 1 8 13 17 16 32
11 12 -4 36 -8 52 -8 17 -1 36 -5 43 -10 6 -4 12 -2 12 3 0 6 8 11 18 11 13 0
14 -2 3 -9 -11 -7 -11 -9 0 -13 8 -3 21 -2 29 2 8 4 39 11 69 15 50 7 56 5 72
-16 10 -13 21 -20 25 -16 4 4 -2 15 -15 23 -12 9 -20 22 -17 29 6 17 -29 26
-43 12 -8 -8 -11 -8 -11 0 0 6 -9 13 -20 16 -14 3 -20 14 -20 32 0 23 4 26 28
23 16 -2 31 -12 37 -25 5 -13 18 -23 28 -23 10 0 20 -7 23 -15 10 -25 84 -8
116 26 26 28 35 30 98 20 3 -1 -1 -5 -9 -10 -11 -7 -5 -11 22 -16 19 -4 41 -4
48 1 8 4 10 3 5 -4 -4 -7 4 -14 21 -18 15 -3 35 -8 44 -10 20 -6 33 -63 24
-106 -5 -21 -2 -35 11 -49 18 -20 59 -26 68 -10 4 6 22 4 44 -4 110 -38 139
-44 207 -39 90 5 101 9 85 29 -10 13 -9 15 9 15 29 0 41 35 41 120 0 38 5 72
10 75 6 4 8 15 5 26 -4 11 -2 19 5 19 7 0 10 8 7 20 -3 11 -1 23 5 26 5 3 8
15 5 25 -3 10 -1 22 5 25 5 3 7 12 4 20 -3 8 -1 24 4 34 6 11 15 29 20 40 6
11 10 37 10 59 0 21 6 53 13 70 11 25 16 28 26 18 10 -10 18 -6 40 21 17 20
34 30 43 27 8 -3 21 1 28 10 16 19 29 19 52 -1 14 -14 20 -14 33 -4 8 7 15 19
15 26 0 8 9 13 23 11 16 -1 22 4 23 18 1 11 2 26 3 33 1 6 8 12 16 12 50 0
-40 46 -111 57 -21 3 -46 11 -54 18 -8 7 -38 16 -67 20 -29 4 -57 13 -64 21
-6 8 -9 14 -5 15 28 4 128 1 157 -5 41 -7 72 1 66 18 -5 12 13 13 78 3 17 -2
24 -2 18 0 -7 2 -13 9 -13 15 0 8 29 9 93 5 51 -3 97 -3 102 1 17 12 17 99 0
106 -8 3 -15 11 -15 19 0 7 -6 19 -13 25 -6 7 -12 25 -12 40 -1 19 -7 28 -24
32 -21 5 -22 7 -8 18 13 11 11 16 -14 42 -28 28 -42 90 -19 90 5 0 7 7 3 16
-4 10 1 17 15 21 21 5 21 5 1 26 -10 11 -19 33 -19 49 0 15 -11 47 -25 72 -14
25 -25 54 -25 64 0 11 -7 25 -15 32 -8 7 -15 24 -15 38 0 36 -21 103 -42 134
-10 14 -18 38 -18 51 0 14 -5 29 -11 33 -6 3 -8 17 -5 30 4 13 2 24 -3 24 -5
0 -7 10 -4 23 4 18 3 19 -6 7 -7 -9 -11 -10 -11 -3 0 6 5 15 10 18 6 4 7 12 1
23 -6 11 -4 20 7 29 15 11 15 13 -5 19 -26 7 -30 19 -8 28 21 8 19 26 -2 26
-17 1 -17 1 0 11 17 10 17 11 1 23 -16 12 -16 15 5 37 21 22 21 24 4 37 -10 7
-28 10 -41 7 -20 -5 -23 -3 -17 14 3 11 1 22 -4 25 -5 4 -8 19 -7 34 3 21 9
28 32 31 29 4 29 4 4 10 -14 4 -26 12 -26 19 -1 7 -2 18 -3 26 0 7 -15 16 -31
20 -32 6 -41 26 -12 27 12 0 11 3 -6 10 -13 5 -28 6 -33 3 -15 -9 -40 17 -34
36 3 9 7 35 9 57 4 40 4 41 -37 53 -52 17 -65 27 -44 35 25 10 8 35 -24 35
-16 0 -29 5 -29 10 0 6 7 10 15 10 22 0 18 19 -4 28 -19 7 -19 8 5 31 24 23
24 23 24 2 0 -12 6 -21 15 -21 8 0 15 -6 15 -13 0 -19 40 -49 57 -43 11 4 13
2 9 -9 -3 -9 0 -15 10 -15 27 0 99 38 112 59 7 12 23 21 37 21 14 0 25 4 25 8
0 9 128 43 180 48 138 14 200 16 200 5 0 -6 -9 -11 -19 -11 -11 0 -23 -4 -26
-10 -3 -6 5 -10 19 -10 31 0 41 -14 21 -30 -8 -7 -12 -16 -9 -22 4 -5 11 -5
18 1 9 8 21 1 43 -24 30 -34 65 -45 78 -25 7 12 115 10 115 -2 0 -5 9 -4 20 2
12 6 29 8 40 5 10 -3 21 -1 25 5 3 5 22 10 40 10 41 0 112 27 139 52 23 21 39
22 67 7 21 -11 16 -34 -6 -25 -8 3 -11 -2 -8 -15 4 -12 0 -19 -10 -19 -8 0
-17 -9 -20 -20 -7 -27 1 -25 35 7 15 15 28 21 28 15 0 -7 -7 -15 -15 -18 -18
-7 -20 -45 -3 -62 8 -8 8 -12 1 -12 -6 0 -13 7 -17 15 -7 20 -40 19 -57 -1
-10 -12 -10 -20 -2 -34 14 -21 -1 -41 -26 -33 -13 4 -13 3 -2 -5 18 -13 4 -34
-19 -27 -15 5 -17 2 -13 -15 4 -14 1 -20 -11 -20 -11 0 -15 5 -10 13 4 6 -2 4
-13 -5 -24 -22 -37 -23 -29 -3 8 23 -22 18 -36 -5 -7 -11 -16 -20 -21 -20 -4
0 -29 -20 -55 -45 -26 -25 -41 -45 -33 -45 13 0 21 6 90 69 19 17 35 31 37 31
2 0 1 -16 -1 -35 -3 -19 0 -35 5 -35 12 0 44 26 78 63 29 31 40 34 38 10 0
-10 -12 -23 -26 -29 -14 -6 -32 -18 -40 -25 -8 -8 -27 -22 -42 -32 -25 -16
-27 -16 -21 0 5 13 2 15 -11 10 -14 -6 -17 -3 -12 9 5 12 -3 10 -26 -9 -18
-14 -32 -32 -32 -41 1 -9 -18 -30 -42 -47 -24 -16 -44 -32 -44 -34 0 -11 30
-4 44 10 30 31 106 85 106 76 0 -10 -83 -81 -114 -98 -10 -6 -14 -13 -9 -16
10 -6 80 44 125 90 16 16 28 24 28 19 0 -4 -24 -31 -52 -59 -32 -30 -43 -45
-28 -37 14 7 41 28 62 47 20 20 42 33 50 30 7 -2 22 0 33 5 20 9 20 9 1 -6
-11 -9 -17 -19 -13 -22 4 -4 14 -1 23 7 15 12 17 12 12 -1 -3 -8 -13 -16 -24
-16 -10 -1 -25 -2 -31 -3 -15 -1 -16 -11 -4 -30 8 -12 16 -10 48 9 24 15 51
22 75 21 20 -1 39 3 43 8 4 7 14 7 31 1 33 -13 34 -13 34 5 0 8 4 15 10 15 5
0 7 -7 4 -15 -4 -10 0 -15 11 -15 9 0 13 5 10 10 -4 6 11 10 39 10 43 0 70 14
44 23 -7 2 -2 2 10 0 13 -2 30 1 38 8 11 9 14 8 14 -3 0 -11 7 -14 25 -10 18
3 30 -1 39 -14 13 -17 14 -17 32 0 13 14 27 17 56 13 29 -4 38 -2 38 10 0 8 5
11 10 8 6 -4 17 -1 25 5 8 7 15 9 15 6 0 -4 7 -1 15 6 36 33 46 38 84 44 23 4
41 10 41 14 0 13 105 47 155 50 70 5 97 0 91 -15 -3 -8 2 -19 12 -24 14 -9 11
-10 -15 -11 -32 0 -43 -13 -23 -25 6 -4 8 -11 4 -16 -4 -6 -11 -6 -20 2 -11 9
-14 8 -14 -5 0 -20 32 -35 38 -18 2 7 8 12 14 12 6 0 8 -6 5 -13 -7 -19 3 -31
40 -49 30 -15 34 -15 42 0 7 13 9 8 8 -18 -2 -34 -1 -35 36 -34 25 1 37 -3 37
-12 0 -8 5 -14 10 -14 6 0 10 3 10 8 0 4 10 8 23 8 12 1 32 5 45 9 14 5 22 3
22 -4 0 -7 -4 -10 -9 -7 -5 3 -12 -1 -15 -10 -8 -22 -8 -26 4 -19 6 3 10 2 10
-4 0 -5 13 -16 29 -24 29 -14 30 -14 41 14 7 16 19 29 26 29 17 0 17 -1 5 -34
-13 -33 6 -50 33 -30 11 8 16 14 11 14 -4 0 -1 8 7 18 9 9 18 24 21 32 4 10 6
7 6 -7 1 -13 6 -23 11 -23 6 0 10 -9 10 -19 0 -11 4 -23 10 -26 6 -3 10 -1 10
4 0 8 7 7 19 -1 22 -13 17 -33 -5 -24 -8 3 -14 0 -14 -7 0 -8 17 -11 55 -9 35
3 55 0 55 -7 0 -14 67 -15 75 -1 3 6 16 10 28 10 16 0 18 -3 10 -11 -9 -9 -9
-15 1 -24 9 -10 25 -11 62 -4 27 5 62 7 78 3 19 -4 26 -3 22 5 -8 13 38 26 54
16 9 -6 9 -10 -1 -16 -9 -6 0 -8 24 -5 28 3 40 1 44 -11 5 -12 7 -12 14 -1 6
10 11 10 21 0 18 -18 38 -15 38 7 0 26 17 35 27 16 8 -13 18 -11 74 17 36 18
89 44 117 57 l52 23 -2 867 -3 866 -27 3 c-26 3 -42 32 -18 32 6 0 10 11 10
25 0 18 5 25 20 25 11 0 20 7 20 15 0 12 -4 14 -17 6 -12 -6 -26 -5 -46 6 -27
13 -29 13 -34 -6 -7 -28 -23 -27 -23 1 0 12 -9 32 -21 44 -19 20 -27 21 -122
17 -56 -3 -107 -10 -114 -15 -7 -5 -14 -5 -18 1 -8 13 -45 -9 -45 -26 0 -7 -7
-13 -16 -13 -8 0 -12 -4 -9 -10 3 -5 -3 -10 -15 -10 -12 0 -19 3 -17 8 3 4
-25 7 -61 7 -72 1 -122 10 -122 24 0 4 11 14 25 21 23 12 24 14 10 48 -8 19
-13 38 -10 42 3 5 -13 6 -35 3 -28 -4 -40 -2 -40 7 0 7 7 10 15 6 18 -7 20 5
3 22 -15 15 -48 16 -48 2 0 -5 -18 -10 -40 -10 -29 0 -40 -4 -40 -15 0 -18
-26 -20 -33 -2 -4 9 -8 9 -16 -2 -6 -9 -6 -21 -1 -31 19 -36 -43 -55 -75 -24
-11 11 -14 26 -10 48 9 44 -24 88 -50 66 -9 -7 -14 -22 -12 -32 4 -15 -1 -18
-31 -18 -28 0 -33 -3 -24 -12 7 -7 12 -18 12 -25 0 -11 -5 -11 -20 -3 -14 8
-19 19 -16 40 3 23 -1 31 -17 36 -12 4 -23 2 -25 -5 -2 -6 -12 -11 -21 -11
-10 0 -21 -3 -25 -7 -13 -13 -160 -9 -183 5 -21 13 -23 12 -34 -12 -7 -14 -19
-27 -28 -28 -30 -2 -66 3 -77 13 -7 5 -16 8 -22 7 -16 -5 -66 55 -68 82 -2 14
-15 35 -29 48 -14 12 -23 27 -20 32 3 6 -3 10 -15 10 -12 0 -18 -4 -15 -10 9
-14 -13 -50 -30 -50 -21 0 -41 44 -44 98 -1 6 -8 12 -16 12 -10 0 -15 10 -15
34 0 29 -3 33 -19 29 -10 -3 -22 0 -25 6 -4 6 4 13 19 17 39 10 30 31 -17 39
l-43 7 30 14 c27 12 28 13 7 14 -25 0 -59 27 -48 37 10 10 -15 32 -30 26 -8
-3 -14 0 -14 6 0 25 -31 9 -36 -19 -7 -34 -24 -30 -24 6 l0 24 -640 0 -640 0
0 -52 c0 -29 -5 -141 -11 -248 -5 -107 -12 -247 -14 -310 -2 -63 -9 -133 -14
-155 -6 -27 -9 94 -10 363 l-1 402 -1635 0 -1635 0 0 -805z m4680 757 c0 -13
-12 -22 -22 -16 -10 6 -1 24 13 24 5 0 9 -4 9 -8z m1657 -542 c2 -22 -12 -27
-81 -32 -33 -2 -51 1 -53 10 -4 9 12 12 56 12 48 0 61 3 61 15 0 22 16 18 17
-5z m-4061 -1015 c11 -43 24 -46 113 -30 80 16 121 10 121 -15 0 -6 12 -10 28
-10 15 0 41 -9 57 -20 17 -11 37 -20 46 -20 10 0 30 -15 45 -34 51 -60 89
-109 91 -115 1 -3 7 -25 13 -47 8 -32 17 -45 40 -54 71 -29 96 -125 45 -175
-13 -14 -29 -25 -35 -25 -5 0 -10 -6 -10 -12 0 -7 -17 -30 -37 -52 -22 -23
-42 -57 -49 -85 -7 -25 -13 -39 -14 -31 -1 20 -29 -29 -30 -52 0 -10 -4 -18
-10 -18 -13 0 -13 -37 -1 -45 6 -3 -4 -31 -21 -63 -35 -67 -40 -99 -22 -128
12 -18 12 -23 -3 -37 -31 -30 -110 -85 -130 -91 -11 -4 -30 -17 -42 -30 -20
-22 -21 -27 -11 -88 9 -60 8 -71 -16 -134 -27 -72 -83 -157 -158 -238 -39 -41
-47 -59 -62 -125 -27 -124 -48 -151 -117 -151 -43 0 -58 17 -93 105 -27 66
-91 145 -120 145 -17 0 -140 85 -169 116 -14 15 -25 33 -25 40 0 13 -72 74
-88 74 -6 0 -13 28 -17 63 -4 34 -13 93 -20 132 -12 63 -18 73 -57 107 -24 21
-51 40 -60 43 -10 4 -18 13 -18 21 0 8 -25 45 -55 81 -30 37 -55 70 -55 74 0
16 -72 113 -115 154 -75 74 -57 119 49 121 61 1 193 25 215 38 16 10 14 20
-10 50 -13 16 -24 23 -28 17 -9 -14 -81 -28 -116 -21 -17 3 -31 12 -33 23 -4
19 21 31 97 48 25 5 57 17 71 26 30 20 101 18 143 -4 16 -8 31 -12 35 -9 10
11 -18 56 -41 65 -34 13 -51 38 -62 94 -8 40 -16 54 -39 67 -16 9 -31 20 -33
26 -6 18 61 72 95 77 19 3 36 8 39 11 3 3 20 -1 38 -9 47 -19 101 -5 140 38
26 28 37 34 60 30 22 -5 34 1 66 37 34 37 43 41 66 35 16 -3 46 -9 68 -12 24
-3 51 -15 67 -30 21 -20 33 -24 57 -20 36 8 41 -9 16 -57 -18 -34 -13 -56 12
-56 45 1 66 53 51 125 -11 47 -3 85 17 85 8 0 17 -11 21 -25z m-1316 -144 c0
-5 -7 -12 -16 -15 -14 -5 -15 -4 -4 9 14 17 20 19 20 6z m-850 -57 c0 -16 -16
-19 -25 -4 -8 13 4 32 16 25 5 -4 9 -13 9 -21z m1169 16 c15 0 35 -6 45 -13
27 -20 3 -52 -54 -73 -25 -9 -68 -30 -96 -46 -67 -37 -93 -37 -107 2 -8 21
-18 30 -34 30 -15 0 -23 6 -23 18 0 35 25 50 92 59 20 3 56 11 80 18 24 8 49
12 56 9 8 -2 26 -4 41 -4z m-1129 -14 c0 -11 -19 -15 -25 -6 -3 5 1 10 9 10 9
0 16 -2 16 -4z m-54 -43 c-3 -4 -12 -8 -19 -9 -7 -1 -20 -5 -29 -9 -10 -4 -18
-3 -18 3 0 6 6 13 13 15 19 8 61 8 53 0z m14 -79 c0 -2 -7 -4 -15 -4 -8 0 -15
4 -15 10 0 5 7 7 15 4 8 -4 15 -8 15 -10z m110 6 c0 -5 -7 -10 -16 -10 -8 0
-12 5 -9 10 3 6 10 10 16 10 5 0 9 -4 9 -10z m3727 -30 c2 -12 -3 -20 -12 -20
-15 0 -21 31 -8 43 9 9 16 1 20 -23z m-3902 10 c-3 -5 -11 -10 -16 -10 -6 0
-7 5 -4 10 3 6 11 10 16 10 6 0 7 -4 4 -10z m125 0 c-17 -11 -136 -50 -154
-50 -6 0 4 9 23 21 18 11 40 18 48 15 8 -3 24 1 36 9 12 8 31 15 42 15 17 0
17 -2 5 -10z m97 -6 c-3 -3 -12 -4 -19 -1 -8 3 -5 6 6 6 11 1 17 -2 13 -5z
m-47 -9 c0 -7 -70 -35 -89 -35 -21 0 49 39 72 39 9 1 17 -1 17 -4z m675 -11
c0 -20 -39 -64 -57 -64 -9 0 -20 -5 -23 -10 -8 -14 -25 -3 -25 16 0 23 62 75
85 72 11 -2 20 -8 20 -14z m3586 -7 c-10 -9 -11 -8 -5 6 3 10 9 15 12 12 3 -3
0 -11 -7 -18z m-4297 -26 c4 -5 -8 -12 -25 -16 -17 -4 -42 -13 -57 -21 l-27
-14 30 -1 30 -1 -35 -13 c-44 -17 -57 -18 -42 -3 9 9 7 15 -6 25 -14 12 -14
14 -1 10 8 -3 37 6 65 18 56 27 61 28 68 16z m73 -15 c-17 -13 -17 -15 -2 -24
15 -8 15 -10 -4 -15 -14 -3 -21 0 -21 10 0 10 -6 12 -22 7 -20 -6 -21 -5 -10
9 12 14 33 22 67 25 6 1 2 -5 -8 -12z m833 -18 c71 -35 122 -72 113 -82 -4 -3
5 -6 20 -6 14 0 28 -4 31 -8 2 -4 -32 -8 -77 -7 -78 0 -82 -1 -85 -22 -5 -31
-20 -29 -34 5 -9 21 -12 23 -15 10 -3 -10 -9 -18 -14 -18 -5 0 -9 -7 -9 -15 0
-18 -29 -65 -40 -65 -20 0 -82 71 -91 104 -20 73 17 131 60 92 10 -9 23 -16
29 -16 7 0 12 -4 12 -10 0 -5 3 -10 8 -10 4 0 6 18 4 40 -5 50 2 50 88 8z
m3345 13 c-3 -6 -11 -11 -17 -11 -6 0 -6 6 2 15 14 17 26 13 15 -4z m-4270
-31 c-3 -5 -10 -10 -16 -10 -5 0 -9 5 -9 10 0 6 7 10 16 10 8 0 12 -4 9 -10z
m135 -20 c-8 -5 -22 -9 -30 -9 -10 0 -8 3 5 9 27 12 43 12 25 0z m86 -15 c-11
-8 -30 -15 -42 -15 -35 0 -161 -54 -201 -86 -43 -34 -53 -39 -53 -25 0 6 4 11
9 11 5 0 14 14 20 30 6 19 17 30 29 30 10 0 45 9 78 21 136 48 195 60 160 34z
m-152 -4 c5 -8 -66 -31 -95 -31 -21 0 1 14 39 26 48 15 50 16 56 5z m5016 5
c0 -3 -4 -8 -10 -11 -5 -3 -10 -1 -10 4 0 6 5 11 10 11 6 0 10 -2 10 -4z
m-5170 -14 c0 -4 -9 -13 -20 -20 -22 -13 -27 -3 -8 16 14 14 28 16 28 4z m700
-12 c-9 -17 -30 -28 -30 -16 0 16 15 36 26 36 12 0 12 -4 4 -20z m3614 -4 c-7
-17 -34 -22 -34 -6 0 6 7 10 15 10 8 0 15 5 15 12 0 6 2 9 5 6 3 -3 3 -13 -1
-22z m-4287 -23 c-9 -9 -19 -14 -23 -11 -10 10 6 28 24 28 15 0 15 -1 -1 -17z
m256 10 c-7 -2 -19 -2 -25 0 -7 3 -2 5 12 5 14 0 19 -2 13 -5z m-53 -13 c-20
-13 -43 -13 -35 0 3 6 16 10 28 10 18 0 19 -2 7 -10z m86 -28 c-10 -11 -16
-12 -16 -4 0 7 5 12 10 12 6 0 9 3 9 8 -3 16 3 26 8 14 3 -8 -2 -21 -11 -30z
m4888 2 c9 -8 13 -21 9 -27 -4 -7 -8 -6 -11 3 -2 8 -11 21 -20 28 -9 6 -11 12
-5 12 7 0 19 -7 27 -16z m47 -17 c-16 -16 -26 0 -10 19 9 11 15 12 17 4 2 -6
-1 -17 -7 -23z m-5246 3 c-3 -5 -13 -10 -21 -10 -8 0 -12 5 -9 10 3 6 13 10
21 10 8 0 12 -4 9 -10z m205 0 c0 -5 -4 -10 -10 -10 -5 0 -10 5 -10 10 0 6 5
10 10 10 6 0 10 -4 10 -10z m4060 -22 c-19 -20 -20 -21 -14 -3 8 20 25 37 32
30 2 -2 -6 -14 -18 -27z m-3793 16 c-3 -3 -12 -4 -19 -1 -8 3 -5 6 6 6 11 1
17 -2 13 -5z m-315 -16 c-9 -9 -15 -9 -24 0 -9 9 -7 12 12 12 19 0 21 -3 12
-12z m123 2 c3 -5 -1 -10 -9 -10 -9 0 -16 5 -16 10 0 6 4 10 9 10 6 0 13 -4
16 -10z m3880 -9 c-3 -6 -14 -11 -23 -11 -15 1 -15 2 2 15 21 16 32 13 21 -4z
m-3771 -6 c-7 -17 -20 -20 -28 -6 -4 5 0 12 6 14 23 9 28 7 22 -8z m102 -4 c0
-20 -48 -46 -131 -71 -22 -7 -44 -16 -50 -20 -14 -10 -65 -19 -60 -10 2 4 26
15 52 25 26 10 62 23 78 30 77 32 80 34 62 34 -10 1 -15 6 -12 11 4 6 15 8 26
5 11 -4 19 -2 19 4 0 6 4 11 8 11 4 0 8 -9 8 -19z m-299 3 c-3 -3 -12 -4 -19
-1 -8 3 -5 6 6 6 11 1 17 -2 13 -5z m153 -14 c0 -5 -4 -10 -10 -10 -5 0 -10 5
-10 10 0 6 5 10 10 10 6 0 10 -4 10 -10z m3865 -9 c-3 -6 -11 -11 -17 -11 -6
0 -6 6 2 15 14 17 26 13 15 -4z m1166 -4 c-10 -9 -11 -8 -5 6 3 10 9 15 12 12
3 -3 0 -11 -7 -18z m-66 3 c-3 -5 -14 -10 -23 -9 -14 0 -13 2 3 9 27 11 27 11
20 0z m-5120 -15 c-35 -16 -64 -20 -49 -6 10 10 39 18 64 19 8 0 2 -6 -15 -13z
m5005 5 c0 -5 -4 -10 -10 -10 -5 0 -10 5 -10 10 0 6 5 10 10 10 6 0 10 -4 10
-10z m-5150 -15 c-14 -7 -27 -11 -30 -9 -6 7 22 24 40 23 9 0 5 -6 -10 -14z
m441 -8 c-13 -13 -26 -3 -16 12 3 6 11 8 17 5 6 -4 6 -10 -1 -17z m3725 9 c17
5 17 4 -1 -7 -11 -7 -26 -19 -34 -26 -7 -8 -16 -11 -19 -8 -3 3 3 12 14 20 11
8 14 15 7 15 -7 0 -13 5 -13 11 0 8 4 8 14 0 7 -6 22 -9 32 -5z m-3896 -8
c-14 -5 -40 -16 -58 -24 -18 -8 -39 -14 -48 -14 -8 0 -25 -6 -37 -14 -12 -7
-35 -16 -52 -20 -25 -5 -23 -2 15 19 25 13 54 24 66 25 11 0 24 3 28 8 11 11
68 30 91 31 17 0 16 -2 -5 -11z m-240 -18 c-8 -5 -22 -9 -30 -9 -10 0 -8 3 5
9 27 12 43 12 25 0z m3974 -5 c-4 -8 -11 -15 -16 -15 -6 0 -5 6 2 15 7 8 14
15 16 15 2 0 1 -7 -2 -15z m266 -17 c0 -10 -2 -18 -4 -18 -2 0 -11 -3 -19 -6
-14 -5 -31 21 -23 35 10 15 46 6 46 -11z m-4270 -12 c0 -3 -4 -8 -10 -11 -5
-3 -10 -1 -10 4 0 6 5 11 10 11 6 0 10 -2 10 -4z m4310 -6 c0 -5 -2 -10 -4
-10 -3 0 -8 5 -11 10 -3 6 -1 10 4 10 6 0 11 -4 11 -10z m93 3 c-7 -2 -19 -2
-25 0 -7 3 -2 5 12 5 14 0 19 -2 13 -5z m927 -13 c0 -5 -4 -10 -10 -10 -5 0
-10 5 -10 10 0 6 5 10 10 10 6 0 10 -4 10 -10z m90 -4 c0 -18 -6 -22 -50 -31
-38 -8 -33 5 12 30 31 18 38 18 38 1z m185 -36 c0 -7 -6 -15 -12 -17 -8 -3
-13 4 -13 17 0 13 5 20 13 18 6 -3 12 -11 12 -18z m-5615 -30 c-17 -11 -40
-13 -40 -4 0 15 35 32 45 23 6 -7 5 -13 -5 -19z m2655 20 c3 -5 1 -10 -4 -10
-6 0 -11 5 -11 10 0 6 2 10 4 10 3 0 8 -4 11 -10z m1 -75 c-3 -8 -13 -11 -25
-8 -24 6 -28 23 -7 23 8 0 17 8 21 18 8 16 8 16 12 -1 3 -10 2 -24 -1 -32z
m2784 30 c0 -8 -4 -15 -10 -15 -5 0 -10 7 -10 15 0 8 5 15 10 15 6 0 10 -7 10
-15z m325 -5 c3 -5 1 -10 -4 -10 -6 0 -11 5 -11 10 0 6 2 10 4 10 3 0 8 -4 11
-10z m-50 -31 c10 -15 -1 -23 -20 -15 -9 3 -13 10 -10 16 8 13 22 13 30 -1z
m135 -19 c0 -5 -4 -10 -10 -10 -5 0 -10 5 -10 10 0 6 5 10 10 10 6 0 10 -4 10
-10z m-65 -20 c18 -19 17 -20 -3 -20 -12 0 -22 2 -22 4 0 2 -3 11 -6 20 -9 22
9 20 31 -4z m-4462 -232 c-16 -71 -55 -112 -69 -73 -7 18 34 83 56 89 8 2 16
4 17 5 0 0 -1 -9 -4 -21z m-1198 -768 c3 -5 1 -10 -4 -10 -6 0 -11 5 -11 10 0
6 2 10 4 10 3 0 8 -4 11 -10z m55 -26 c0 -11 -5 -14 -16 -10 -9 4 -23 1 -30
-5 -11 -9 -14 -8 -14 4 0 16 14 25 43 26 9 1 17 -6 17 -15z m1308 -59 c-3 -14
-1 -25 3 -25 5 0 9 -9 9 -20 0 -10 6 -25 14 -32 10 -9 11 -20 5 -37 -12 -30
-5 -38 16 -17 9 9 22 13 28 9 17 -10 -30 -37 -90 -49 -29 -6 -56 -7 -59 -3 -3
5 0 9 7 9 7 0 5 8 -6 20 -18 19 -17 20 3 20 26 0 37 16 17 24 -11 4 -13 14 -8
38 3 18 9 35 13 38 4 3 12 15 19 28 16 30 35 28 29 -3z m-65 -22 c-7 -3 -13
-13 -13 -24 0 -10 -4 -19 -9 -19 -8 0 -6 22 5 59 4 12 7 12 17 1 9 -10 9 -13
0 -17z m1862 -10 c30 -9 55 -21 55 -25 0 -5 -6 -8 -12 -7 -40 5 -108 -2 -103
-11 3 -5 -1 -10 -10 -10 -11 0 -15 5 -11 15 3 8 -2 18 -11 23 -20 11 -9 32 17
32 11 0 44 -8 75 -17z m-3175 -43 c0 -5 -2 -10 -4 -10 -3 0 -8 5 -11 10 -3 6
-1 10 4 10 6 0 11 -4 11 -10z m-30 -132 c-1 -35 -3 -40 -11 -25 -10 17 -5 67
6 67 3 0 5 -19 5 -42z m2216 17 c25 -13 24 -13 -24 -16 -37 -3 -49 -1 -48 9 3
16 27 33 38 26 4 -3 20 -11 34 -19z m-1496 5 c0 -5 -2 -10 -4 -10 -3 0 -8 5
-11 10 -3 6 -1 10 4 10 6 0 11 -4 11 -10z m1390 -21 c-9 -16 -14 -18 -26 -9
-17 15 -9 30 17 30 17 0 18 -3 9 -21z m170 -40 c0 -9 -49 -33 -55 -27 -13 12
8 36 31 34 13 0 24 -4 24 -7z m-2300 -55 c0 -8 -4 -12 -10 -9 -5 3 -10 10 -10
16 0 5 5 9 10 9 6 0 10 -7 10 -16z m1660 -74 c0 -5 -4 -10 -10 -10 -5 0 -10 5
-10 10 0 6 5 10 10 10 6 0 10 -4 10 -10z m-600 -21 c0 -5 -4 -9 -10 -9 -5 0
-10 7 -10 16 0 8 5 12 10 9 6 -3 10 -10 10 -16z m1090 -19 c0 -5 -8 -10 -17
-10 -15 0 -16 2 -3 10 19 12 20 12 20 0z m-495 -41 c-5 -14 0 -22 17 -28 20
-8 21 -10 5 -16 -9 -4 -23 -2 -31 4 -7 6 -21 9 -30 5 -12 -5 -16 0 -16 18 0
31 16 47 41 41 14 -4 18 -11 14 -24z m-790 11 c3 -5 1 -10 -4 -10 -6 0 -11 5
-11 10 0 6 2 10 4 10 3 0 8 -4 11 -10z m162 -2 c-2 -7 -13 -13 -24 -13 -11 -1
-27 -5 -34 -11 -8 -6 -22 -14 -32 -17 -20 -8 -17 -34 3 -29 15 3 42 -17 35
-28 -2 -4 -18 -7 -36 -8 -31 -1 -69 -26 -69 -45 0 -14 -61 -67 -76 -67 -7 0
-16 5 -20 11 -3 6 -28 9 -58 8 -28 -2 -61 2 -73 9 -31 17 -61 15 -67 -6 -6
-19 -108 -48 -126 -37 -6 4 -29 -9 -50 -29 -44 -39 -67 -48 -51 -18 5 9 19 26
30 36 12 11 21 26 21 34 0 8 6 12 14 9 8 -3 24 5 37 19 12 13 28 24 36 24 7 0
13 4 13 9 0 5 16 18 36 30 39 23 48 26 39 12 -3 -5 -1 -12 4 -15 12 -8 41 3
41 16 0 5 -5 6 -11 2 -8 -4 -8 0 0 15 7 11 16 21 22 21 5 0 14 11 20 24 10 21
15 23 30 13 10 -6 16 -14 14 -17 -2 -4 17 -3 43 1 26 4 75 8 110 8 48 1 62 4
62 16 0 15 47 33 93 34 19 1 27 -3 24 -11z m113 -65 c0 -29 -15 -61 -24 -52
-8 8 6 79 15 79 5 0 9 -12 9 -27z m-98 -5 c-7 -7 -12 -8 -12 -2 0 14 12 26 19
19 2 -3 -1 -11 -7 -17z m-577 2 c-3 -5 -12 -10 -18 -10 -7 0 -6 4 3 10 19 12
23 12 15 0z m2224 -74 c11 -11 21 -26 21 -34 0 -13 -3 -13 -18 1 -28 25 -70
22 -74 -5 -2 -12 -9 -23 -16 -26 -8 -2 -5 12 10 42 12 25 26 46 30 46 4 0 8 8
9 18 0 14 2 14 8 -3 5 -11 18 -29 30 -39z m-2631 32 c-3 -7 -11 -13 -18 -13
-7 0 -15 6 -17 13 -3 7 4 12 17 12 13 0 20 -5 18 -12z m226 -19 c-3 -5 -10 -7
-15 -3 -5 3 -7 10 -3 15 3 5 10 7 15 3 5 -3 7 -10 3 -15z m-276 -1 c-3 -7 -11
-13 -18 -13 -7 0 -15 6 -17 13 -3 7 4 12 17 12 13 0 20 -5 18 -12z m-88 -2 c0
-11 -19 -15 -25 -6 -3 5 1 10 9 10 9 0 16 -2 16 -4z m430 -36 c0 -5 -4 -10
-10 -10 -5 0 -10 5 -10 10 0 6 5 10 10 10 6 0 10 -4 10 -10z m-67 -46 c-23
-17 -33 -17 -33 -1 0 23 22 38 37 25 11 -9 10 -13 -4 -24z m-333 0 c0 -8 -4
-14 -10 -14 -5 0 -10 9 -10 21 0 11 5 17 10 14 6 -3 10 -13 10 -21z m93 12 c3
-7 -7 -23 -24 -35 -17 -12 -34 -33 -39 -47 -11 -28 -19 -29 -45 -11 -21 16
-13 37 15 37 11 0 32 16 47 35 31 38 38 42 46 21z m1927 -30 c0 -15 -18 -42
-24 -36 -5 6 -9 30 -7 47 1 15 31 5 31 -11z m-1720 -16 c0 -5 -7 -10 -16 -10
-8 0 -12 5 -9 10 3 6 10 10 16 10 5 0 9 -4 9 -10z m-81 -27 c0 -13 -60 -56
-66 -49 -9 8 38 55 55 55 6 1 12 -2 11 -6z m1811 -35 c0 -5 -4 -8 -10 -8 -5 0
-10 10 -10 23 0 18 2 19 10 7 5 -8 10 -18 10 -22z m760 -15 c0 -17 -19 -35
-29 -29 -18 12 -12 36 9 36 11 0 20 -3 20 -7z m-2730 -67 c0 -2 -7 -7 -16 -10
-8 -3 -12 -2 -9 4 6 10 25 14 25 6z m2580 -87 c0 -5 -7 -9 -15 -9 -15 0 -20
12 -9 23 8 8 24 -1 24 -14z m-2663 -214 c-8 -22 -32 -15 -32 8 0 20 3 22 18
13 9 -6 16 -15 14 -21z"/>
<path d="M2373 5239 c-46 -13 -56 -38 -35 -80 16 -33 20 -34 100 -46 75 -10
88 -9 140 8 130 45 148 69 77 104 -31 16 -63 20 -145 22 -58 1 -120 -2 -137
-8z"/>
<path d="M2150 4590 c0 -13 -30 -28 -69 -35 -18 -3 -41 -11 -51 -17 -15 -10
-22 -10 -32 0 -6 6 -19 12 -27 12 -8 0 -22 7 -32 16 -13 12 -37 16 -89 16 -88
-1 -115 -8 -98 -26 22 -22 122 -86 134 -86 6 0 17 -6 23 -14 32 -39 105 -24
164 34 23 22 60 56 82 75 36 31 38 35 18 35 -13 0 -23 -4 -23 -10z"/>
<path d="M1720 4314 c-6 -14 -10 -36 -10 -49 0 -19 4 -22 22 -17 18 4 20 2 16
-16 -4 -12 -3 -24 2 -27 4 -2 3 -26 -2 -52 -11 -59 -13 -111 -5 -119 3 -3 14
-1 25 5 11 6 35 12 53 15 19 2 45 9 59 14 31 12 388 37 426 29 15 -3 39 -1 52
4 22 9 24 13 18 52 -6 39 -46 93 -59 81 -3 -3 -13 -1 -24 5 -51 29 -116 51
-150 51 -22 0 -48 9 -63 20 -30 23 -72 26 -103 5 -32 -21 -167 -38 -200 -26
-17 7 -25 16 -21 24 3 8 -2 17 -11 21 -11 4 -19 -2 -25 -20z m65 -54 c-3 -5
-10 -10 -16 -10 -5 0 -9 5 -9 10 0 6 7 10 16 10 8 0 12 -4 9 -10z"/>
<path d="M800 2970 c0 -5 7 -10 15 -10 8 0 15 5 15 10 0 6 -7 10 -15 10 -8 0
-15 -4 -15 -10z"/>
<path d="M677 2876 c-4 -10 -5 -21 -2 -24 9 -9 17 6 13 25 -3 17 -4 17 -11 -1z"/>
<path d="M5078 6793 c-2 -4 -4 -15 -3 -23 1 -8 3 -22 3 -31 3 -22 42 -38 70
-28 18 7 21 12 13 27 -5 10 -9 27 -8 37 2 16 -5 21 -35 23 -20 2 -38 -1 -40
-5z"/>
<path d="M5448 6693 c7 -3 16 -2 19 1 4 3 -2 6 -13 5 -11 0 -14 -3 -6 -6z"/>
<path d="M6052 6598 c2 -18 10 -23 31 -23 15 0 26 5 25 10 -2 6 -9 9 -15 9 -7
-1 -13 4 -13 12 0 8 -7 14 -16 14 -10 0 -14 -7 -12 -22z"/>
<path d="M6416 6605 c-14 -11 -16 -15 -5 -15 8 0 23 7 33 15 14 11 16 15 5 15
-8 0 -23 -7 -33 -15z"/>
<path d="M6095 6550 c-3 -5 -1 -10 4 -10 6 0 11 5 11 10 0 6 -2 10 -4 10 -3 0
-8 -4 -11 -10z"/>
<path d="M10 5390 c0 -5 4 -10 9 -10 6 0 13 5 16 10 3 6 -1 10 -9 10 -9 0 -16
-4 -16 -10z"/>
<path d="M3605 5120 c-3 -5 0 -10 9 -10 8 0 23 -3 33 -7 17 -6 17 -6 1 10 -19
19 -34 22 -43 7z"/>
<path d="M3696 5123 c-11 -11 -6 -23 9 -23 8 0 15 4 15 9 0 13 -16 22 -24 14z"/>
<path d="M4325 5120 c3 -5 8 -10 11 -10 2 0 4 5 4 10 0 6 -5 10 -11 10 -5 0
-7 -4 -4 -10z"/>
<path d="M3620 5060 c0 -5 7 -10 15 -10 8 0 15 5 15 10 0 6 -7 10 -15 10 -8 0
-15 -4 -15 -10z"/>
<path d="M3295 4960 c-5 -7 3 -40 10 -40 1 0 15 7 31 15 29 15 29 14 -21 30
-8 2 -17 0 -20 -5z"/>
<path d="M3898 4933 c7 -3 16 -2 19 1 4 3 -2 6 -13 5 -11 0 -14 -3 -6 -6z"/>
<path d="M4011 4896 c-7 -8 -22 -17 -34 -19 -19 -4 -18 -4 4 -6 25 -1 58 23
47 34 -3 3 -11 -1 -17 -9z"/>
<path d="M4070 4896 c0 -2 7 -6 15 -10 8 -3 15 -1 15 4 0 6 -7 10 -15 10 -8 0
-15 -2 -15 -4z"/>
<path d="M5170 4890 c0 -5 5 -10 10 -10 6 0 10 5 10 10 0 6 -4 10 -10 10 -5 0
-10 -4 -10 -10z"/>
<path d="M5215 4890 c4 -6 11 -8 16 -5 14 9 11 15 -7 15 -8 0 -12 -5 -9 -10z"/>
<path d="M4060 4860 c-14 -4 -20 -9 -15 -10 6 -1 -1 -5 -15 -10 -22 -6 -23 -8
-7 -15 14 -6 26 0 45 19 15 14 24 26 22 25 -3 -1 -16 -5 -30 -9z"/>
<path d="M5123 4856 c-4 -5 1 -7 9 -3 9 3 24 -1 35 -8 25 -19 33 -18 33 4 0
15 -7 19 -36 18 -19 -1 -38 -5 -41 -11z"/>
<path d="M3950 4829 c0 -5 11 -9 25 -9 33 0 33 15 0 16 -14 1 -25 -2 -25 -7z"/>
<path d="M636 4822 c-3 -5 1 -9 9 -9 8 0 15 4 15 9 0 4 -4 8 -9 8 -6 0 -12 -4
-15 -8z"/>
<path d="M606 4801 c-3 -5 1 -11 9 -14 9 -4 12 -1 8 9 -6 16 -10 17 -17 5z"/>
<path d="M523 4781 c2 -25 7 -26 33 -5 10 8 13 13 6 9 -7 -4 -19 -1 -27 5 -11
9 -14 7 -12 -9z"/>
<path d="M3965 4780 c-3 -6 1 -7 9 -4 18 7 21 14 7 14 -6 0 -13 -4 -16 -10z"/>
<path d="M668 4763 c7 -3 16 -2 19 1 4 3 -2 6 -13 5 -11 0 -14 -3 -6 -6z"/>
<path d="M4187 4738 c-27 -31 -30 -51 -3 -29 11 9 15 9 19 -1 9 -27 -3 -37
-30 -23 -24 13 -28 12 -49 -13 -13 -14 -21 -29 -18 -31 3 -3 10 2 16 12 8 15
17 17 47 12 28 -5 41 -2 51 10 12 14 11 18 -1 26 -8 5 -9 9 -4 9 6 0 3 5 -5
10 -13 9 -13 12 3 21 17 10 24 29 10 29 -5 -1 -20 -15 -36 -32z"/>
<path d="M405 4741 c4 -13 -1 -20 -17 -25 -15 -5 -18 -9 -10 -13 16 -6 38 12
45 37 3 13 0 20 -10 20 -9 0 -12 -6 -8 -19z"/>
<path d="M351 4737 c-25 -13 -30 -29 -12 -35 6 -2 11 3 11 11 0 8 10 19 23 25
12 6 18 11 12 11 -5 0 -21 -5 -34 -12z"/>
<path d="M3975 4740 c3 -5 8 -10 11 -10 2 0 4 5 4 10 0 6 -5 10 -11 10 -5 0
-7 -4 -4 -10z"/>
<path d="M245 4729 c-12 -19 5 -23 22 -6 16 16 16 17 1 17 -9 0 -20 -5 -23
-11z"/>
<path d="M445 4680 c-3 -5 -1 -10 4 -10 6 0 11 5 11 10 0 6 -2 10 -4 10 -3 0
-8 -4 -11 -10z"/>
<path d="M4080 4680 c0 -5 5 -10 11 -10 5 0 7 5 4 10 -3 6 -8 10 -11 10 -2 0
-4 -4 -4 -10z"/>
<path d="M310 4660 c-8 -5 -12 -12 -9 -15 4 -3 12 1 19 10 14 17 11 19 -10 5z"/>
<path d="M188 4647 c-16 -6 -28 -16 -28 -22 0 -6 -16 -19 -36 -29 -20 -9 -34
-19 -32 -21 7 -7 67 24 75 40 5 7 24 20 43 28 40 17 20 21 -22 4z"/>
<path d="M258 4643 c-10 -2 -18 -9 -18 -14 0 -13 12 -11 34 6 20 15 16 17 -16
8z"/>
<path d="M5690 4626 c0 -8 -3 -22 -6 -30 -5 -12 -2 -15 10 -10 17 7 23 54 6
54 -5 0 -10 -6 -10 -14z"/>
<path d="M5005 4610 c3 -5 8 -10 11 -10 2 0 4 5 4 10 0 6 -5 10 -11 10 -5 0
-7 -4 -4 -10z"/>
<path d="M405 4560 c-3 -6 1 -7 9 -4 18 7 21 14 7 14 -6 0 -13 -4 -16 -10z"/>
<path d="M5720 4549 c0 -5 5 -7 10 -4 6 3 10 8 10 11 0 2 -4 4 -10 4 -5 0 -10
-5 -10 -11z"/>
<path d="M5698 4383 c7 -3 16 -2 19 1 4 3 -2 6 -13 5 -11 0 -14 -3 -6 -6z"/>
<path d="M6465 4380 c3 -5 8 -10 11 -10 2 0 4 5 4 10 0 6 -5 10 -11 10 -5 0
-7 -4 -4 -10z"/>
<path d="M6543 4366 c18 -14 18 -14 0 -19 -14 -4 -14 -5 5 -6 12 0 22 3 22 7
0 12 -22 32 -34 32 -6 0 -3 -7 7 -14z"/>
<path d="M6486 4335 c-3 -8 -1 -15 4 -15 13 0 22 18 11 24 -5 3 -11 -1 -15 -9z"/>
<path d="M6575 4319 c-10 -15 3 -25 16 -12 7 7 7 13 1 17 -6 3 -14 1 -17 -5z"/>
<path d="M6450 4298 c0 -4 7 -8 15 -8 8 0 15 4 15 8 0 5 -7 9 -15 9 -8 0 -15
-4 -15 -9z"/>
<path d="M6540 4290 c0 -5 5 -10 10 -10 6 0 10 5 10 10 0 6 -4 10 -10 10 -5 0
-10 -4 -10 -10z"/>
<path d="M5390 4286 c0 -2 11 -6 25 -8 14 -3 25 -1 25 3 0 5 -11 9 -25 9 -14
0 -25 -2 -25 -4z"/>
<path d="M6585 4270 c-3 -5 -4 -14 0 -19 3 -5 -4 -16 -16 -24 -20 -15 -20 -15
5 -13 22 1 26 6 26 34 0 33 -4 39 -15 22z"/>
<path d="M6175 4261 c-7 -12 12 -24 25 -16 11 7 4 25 -10 25 -5 0 -11 -4 -15
-9z"/>
<path d="M5360 4200 c0 -5 5 -10 10 -10 6 0 10 5 10 10 0 6 -4 10 -10 10 -5 0
-10 -4 -10 -10z"/>
<path d="M6478 4073 c7 -3 16 -2 19 1 4 3 -2 6 -13 5 -11 0 -14 -3 -6 -6z"/>
<path d="M311 4054 c0 -11 3 -14 6 -6 3 7 2 16 -1 19 -3 4 -6 -2 -5 -13z"/>
<path d="M6575 4060 c-3 -5 -2 -10 4 -10 5 0 13 5 16 10 3 6 2 10 -4 10 -5 0
-13 -4 -16 -10z"/>
<path d="M6525 4050 c-8 -13 5 -13 25 0 13 8 13 10 -2 10 -9 0 -20 -4 -23 -10z"/>
<path d="M6430 4039 c0 -5 5 -7 10 -4 6 3 10 8 10 11 0 2 -4 4 -10 4 -5 0 -10
-5 -10 -11z"/>
<path d="M100 3990 c-13 -8 -12 -10 3 -10 9 0 17 5 17 10 0 12 -1 12 -20 0z"/>
<path d="M130 3993 c0 -5 5 -15 10 -23 8 -12 10 -11 10 8 0 12 -4 22 -10 22
-5 0 -10 -3 -10 -7z"/>
<path d="M175 3990 c-4 -6 3 -10 14 -10 25 0 27 6 6 13 -8 4 -17 2 -20 -3z"/>
<path d="M6500 3970 c0 -13 20 -13 40 0 12 8 9 10 -12 10 -16 0 -28 -4 -28
-10z"/>
<path d="M70 3956 c0 -9 -5 -16 -11 -16 -5 0 -7 5 -4 10 9 15 -4 12 -21 -4
-27 -28 -7 -50 35 -39 22 6 30 46 11 58 -5 3 -10 -1 -10 -9z"/>
<path d="M6565 3949 c-9 -14 -2 -20 14 -10 8 6 9 11 3 15 -6 3 -14 1 -17 -5z"/>
<path d="M6096 3926 c3 -9 11 -16 16 -16 13 0 5 23 -10 28 -7 2 -10 -2 -6 -12z"/>
<path d="M3893 3812 c-13 -2 -23 -9 -23 -17 0 -7 -7 -15 -15 -19 -18 -7 -16
-27 6 -43 17 -13 90 -13 82 0 -3 4 0 14 6 21 9 10 4 12 -23 11 -18 -1 -38 -5
-45 -9 -6 -4 -11 -2 -11 4 0 5 14 19 31 29 32 20 29 29 -8 23z"/>
<path d="M240 3799 c0 -5 5 -7 10 -4 6 3 10 8 10 11 0 2 -4 4 -10 4 -5 0 -10
-5 -10 -11z"/>
<path d="M340 3769 c0 -5 5 -7 10 -4 6 3 10 8 10 11 0 2 -4 4 -10 4 -5 0 -10
-5 -10 -11z"/>
<path d="M281 3740 c-12 -17 -19 -36 -15 -42 5 -7 10 -4 15 11 5 12 18 25 30
29 17 7 18 10 7 20 -12 9 -19 6 -37 -18z"/>
<path d="M330 3720 l-25 -21 28 12 c15 7 27 16 27 21 0 11 -1 10 -30 -12z"/>
<path d="M3888 3702 c-32 -4 -35 -14 -12 -36 12 -12 12 -16 2 -17 -7 0 -2 -5
11 -10 18 -7 21 -12 12 -22 -14 -17 13 -57 37 -56 15 1 15 2 0 6 -11 3 -18 14
-18 29 0 27 17 32 34 10 11 -15 31 -19 79 -17 17 1 26 5 21 12 -3 6 -16 8 -29
5 -19 -5 -22 -2 -18 19 4 20 2 23 -16 18 -12 -3 -28 0 -36 7 -8 6 -19 9 -25 5
-5 -3 -15 -3 -21 1 -22 13 13 22 49 12 24 -7 37 -6 42 1 3 7 14 9 23 5 13 -5
16 -2 11 9 -4 12 -14 15 -37 10 -18 -3 -34 -6 -37 -6 -3 -1 -14 3 -25 9 -11 5
-32 8 -47 6z m112 -82 c0 -5 -7 -10 -16 -10 -8 0 -12 5 -9 10 3 6 10 10 16 10
5 0 9 -4 9 -10z"/>
<path d="M325 3670 c3 -5 8 -10 11 -10 2 0 4 5 4 10 0 6 -5 10 -11 10 -5 0 -7
-4 -4 -10z"/>
<path d="M4057 3673 c-4 -3 -7 -11 -7 -17 0 -6 5 -5 12 2 6 6 9 14 7 17 -3 3
-9 2 -12 -2z"/>
<path d="M3840 3649 c0 -5 5 -7 10 -4 6 3 10 8 10 11 0 2 -4 4 -10 4 -5 0 -10
-5 -10 -11z"/>
<path d="M4130 3635 c0 -8 4 -15 10 -15 5 0 7 7 4 15 -4 8 -8 15 -10 15 -2 0
-4 -7 -4 -15z"/>
<path d="M390 3620 c0 -5 5 -10 10 -10 6 0 10 5 10 10 0 6 -4 10 -10 10 -5 0
-10 -4 -10 -10z"/>
<path d="M767 3623 c-9 -2 -15 -8 -12 -12 6 -11 55 -1 55 10 0 9 -13 10 -43 2z"/>
<path d="M350 3600 c0 -5 7 -10 15 -10 8 0 15 5 15 10 0 6 -7 10 -15 10 -8 0
-15 -4 -15 -10z"/>
<path d="M4076 3603 c-3 -3 -3 -10 0 -14 7 -12 34 -11 34 0 0 11 -26 22 -34
14z"/>
<path d="M6340 3600 c-13 -8 -12 -10 3 -10 9 0 17 5 17 10 0 12 -1 12 -20 0z"/>
<path d="M4130 3563 c8 -3 18 -11 22 -17 5 -7 8 -4 8 7 0 11 -7 17 -22 16 -16
0 -18 -2 -8 -6z"/>
<path d="M5665 3560 c3 -5 8 -10 11 -10 2 0 4 5 4 10 0 6 -5 10 -11 10 -5 0
-7 -4 -4 -10z"/>
<path d="M4065 3553 c-11 -3 -24 -9 -29 -14 -6 -5 -15 -4 -22 2 -14 11 -70 1
-57 -11 15 -13 62 -20 68 -10 9 15 34 12 51 -5 18 -17 34 -20 34 -5 0 6 -7 10
-15 10 -8 0 -15 5 -15 10 0 6 5 10 10 10 6 0 10 5 10 10 0 10 -3 11 -35 3z"/>
<path d="M330 3510 c0 -5 5 -10 10 -10 6 0 10 5 10 10 0 6 -4 10 -10 10 -5 0
-10 -4 -10 -10z"/>
<path d="M847 3504 c-8 -8 1 -24 14 -24 5 0 9 7 9 15 0 15 -12 20 -23 9z"/>
<path d="M4034 3499 c-3 -6 -14 -9 -24 -6 -12 3 -17 0 -14 -8 3 -7 15 -11 27
-10 12 1 27 3 34 4 7 0 10 8 7 16 -7 18 -20 19 -30 4z"/>
<path d="M4090 3470 c0 -5 5 -10 10 -10 6 0 10 5 10 10 0 6 -4 10 -10 10 -5 0
-10 -4 -10 -10z"/>
<path d="M294 3451 c3 -14 1 -30 -5 -37 -13 -15 3 -26 25 -18 22 8 20 27 -5
55 l-21 24 6 -24z"/>
<path d="M4113 3448 c-2 -5 9 -8 24 -8 16 0 34 -5 41 -12 13 -13 16 0 4 17 -8
12 -62 14 -69 3z"/>
<path d="M4260 3456 c0 -2 7 -6 15 -10 8 -3 15 -1 15 4 0 6 -7 10 -15 10 -8 0
-15 -2 -15 -4z"/>
<path d="M4398 3453 c7 -3 16 -2 19 1 4 3 -2 6 -13 5 -11 0 -14 -3 -6 -6z"/>
<path d="M829 3428 c-12 -23 -12 -23 10 -4 23 21 26 26 11 26 -5 0 -15 -10
-21 -22z"/>
<path d="M4040 3440 c0 -7 24 -20 36 -20 13 0 1 19 -16 23 -11 3 -20 2 -20 -3z"/>
<path d="M4210 3435 c0 -13 4 -14 20 -5 11 6 20 13 20 15 0 3 -9 5 -20 5 -11
0 -20 -7 -20 -15z"/>
<path d="M3588 3388 c6 -6 21 -12 33 -13 21 -2 21 -1 4 12 -24 17 -54 18 -37
1z"/>
<path d="M4265 3390 c3 -5 10 -10 16 -10 5 0 9 5 9 10 0 6 -7 10 -16 10 -8 0
-12 -4 -9 -10z"/>
<path d="M268 3318 c5 -34 13 -35 28 -4 10 21 9 25 -10 28 -19 4 -21 1 -18
-24z"/>
<path d="M768 3343 c-10 -2 -18 -12 -18 -20 0 -14 2 -15 18 -1 9 9 24 18 32
21 13 5 13 5 0 5 -8 0 -23 -2 -32 -5z"/>
<path d="M4480 3299 c0 -5 5 -7 10 -4 6 3 10 8 10 11 0 2 -4 4 -10 4 -5 0 -10
-5 -10 -11z"/>
<path d="M707 3287 c-4 -10 -17 -17 -32 -17 -14 0 -25 -4 -25 -10 0 -14 32
-12 54 5 10 7 16 19 14 26 -3 9 -6 8 -11 -4z"/>
<path d="M3969 3293 c-1 -4 -1 -12 0 -17 1 -4 -6 -14 -14 -20 -15 -11 -13 -14
12 -26 15 -7 34 -12 41 -11 7 1 12 -9 12 -25 0 -26 -1 -26 -42 -20 -24 4 -47
11 -52 16 -5 5 -21 1 -38 -12 -34 -24 -26 -39 23 -45 24 -2 30 0 25 12 -4 11
1 15 19 15 27 0 32 -9 14 -27 -8 -8 -6 -18 6 -37 10 -14 21 -26 26 -26 14 0
23 24 11 28 -26 8 -11 32 21 33 30 2 30 2 5 6 -28 4 -40 23 -15 23 7 0 29 8
49 18 25 13 41 16 53 10 24 -14 31 -1 12 20 -10 10 -17 26 -17 34 0 25 -22 37
-76 41 -28 2 -56 7 -62 11 -7 4 -13 4 -13 -1z m141 -53 c0 -5 -7 -10 -15 -10
-8 0 -15 5 -15 10 0 6 7 10 15 10 8 0 15 -4 15 -10z"/>
<path d="M3550 3280 c0 -5 5 -10 11 -10 5 0 7 5 4 10 -3 6 -8 10 -11 10 -2 0
-4 -4 -4 -10z"/>
<path d="M760 3260 c-13 -10 -27 -17 -31 -15 -3 3 -14 -2 -24 -9 -16 -11 -14
-13 20 -12 27 1 42 8 53 24 20 30 12 35 -18 12z"/>
<path d="M267 3264 c-4 -4 -7 -14 -7 -23 0 -11 3 -12 11 -4 6 6 10 16 7 23 -2
6 -7 8 -11 4z"/>
<path d="M587 3244 c-4 -4 -7 -17 -7 -28 0 -19 1 -19 17 -3 12 11 14 20 7 27
-6 6 -13 7 -17 4z"/>
<path d="M3600 3230 c0 -12 45 -24 59 -15 22 13 10 25 -24 25 -19 0 -35 -4
-35 -10z"/>
<path d="M242 3195 c0 -16 2 -22 5 -12 2 9 2 23 0 30 -3 6 -5 -1 -5 -18z"/>
<path d="M6128 3188 c9 -9 15 -9 24 0 9 9 7 12 -12 12 -19 0 -21 -3 -12 -12z"/>
<path d="M4100 3160 c0 -5 5 -10 10 -10 6 0 10 5 10 10 0 6 -4 10 -10 10 -5 0
-10 -4 -10 -10z"/>
<path d="M4140 3134 c0 -9 5 -14 12 -12 18 6 21 28 4 28 -9 0 -16 -7 -16 -16z"/>
<path d="M4177 3100 c-15 -25 -22 -28 -47 -23 -26 5 -30 2 -30 -16 0 -11 -6
-21 -13 -21 -7 0 -22 -6 -32 -14 -18 -13 -18 -14 3 -44 12 -16 19 -37 16 -46
-8 -21 6 -42 17 -25 7 11 11 10 23 -6 13 -17 15 -18 16 -3 0 9 13 26 29 37 15
11 34 34 41 51 7 16 20 30 29 30 11 0 16 9 17 30 1 16 -3 27 -7 24 -14 -8 -11
30 3 44 9 9 5 12 -18 12 -22 0 -34 -7 -47 -30z"/>
<path d="M4265 3090 c-3 -5 -2 -10 4 -10 5 0 13 5 16 10 3 6 2 10 -4 10 -5 0
-13 -4 -16 -10z"/>
<path d="M4440 3085 c0 -8 4 -15 10 -15 5 0 7 7 4 15 -4 8 -8 15 -10 15 -2 0
-4 -7 -4 -15z"/>
<path d="M4950 3089 c0 -5 5 -7 10 -4 6 3 10 8 10 11 0 2 -4 4 -10 4 -5 0 -10
-5 -10 -11z"/>
<path d="M270 3080 c0 -5 5 -10 10 -10 6 0 10 5 10 10 0 6 -4 10 -10 10 -5 0
-10 -4 -10 -10z"/>
<path d="M185 3060 c-4 -6 -3 -16 3 -22 6 -6 12 -6 17 2 4 6 3 16 -3 22 -6 6
-12 6 -17 -2z"/>
<path d="M4550 3031 c0 -6 5 -13 10 -16 6 -3 10 -14 10 -25 0 -10 10 -20 24
-24 13 -3 26 -14 28 -24 3 -11 18 -21 37 -25 25 -5 31 -11 31 -31 0 -18 -4
-24 -15 -20 -27 11 -16 -10 14 -28 37 -20 92 -95 85 -113 -4 -10 3 -13 25 -13
32 1 71 -25 71 -47 0 -7 7 -16 16 -19 8 -3 13 -2 11 2 -42 88 -61 122 -68 122
-5 0 -15 12 -23 28 -8 15 -31 45 -51 67 -21 22 -42 47 -49 55 -6 8 -34 33 -63
54 -29 22 -54 45 -57 53 -6 15 -36 18 -36 4z"/>
<path d="M4310 2959 c0 -18 2 -19 15 -5 8 8 15 17 15 20 0 3 -7 6 -15 6 -9 0
-15 -9 -15 -21z"/>
<path d="M4227 2921 c-6 -22 0 -31 20 -31 9 0 13 8 11 22 -4 28 -24 34 -31 9z"/>
<path d="M4313 2908 c7 -26 -8 -58 -28 -58 -11 0 -13 -11 -8 -52 3 -29 7 -54
8 -56 7 -9 35 13 35 28 0 23 18 36 32 22 7 -7 6 -17 -2 -32 -13 -23 1 -52 14
-31 12 18 33 12 41 -11 6 -22 7 -21 21 10 11 26 18 31 28 23 7 -6 16 -8 19 -4
4 3 7 -1 7 -11 0 -9 -5 -14 -10 -11 -24 15 -18 -25 7 -52 16 -17 39 -51 53
-77 13 -26 35 -57 50 -68 22 -18 25 -18 28 -3 2 9 -8 27 -22 40 -14 13 -26 31
-26 39 0 26 12 46 27 46 9 0 13 -6 10 -14 -10 -26 5 -25 29 1 l25 27 -21 20
c-11 11 -32 21 -47 22 -20 0 -29 7 -33 25 -4 17 -14 25 -33 27 -18 2 -29 11
-33 27 -3 12 -17 33 -31 45 -18 16 -23 28 -19 46 4 14 2 24 -4 24 -5 0 -10
-10 -10 -22 0 -29 -15 -52 -27 -45 -5 3 -18 27 -28 52 -13 31 -25 45 -38 45
-15 0 -18 -5 -14 -22z"/>
<path d="M4460 2910 c0 -5 7 -10 16 -10 8 0 12 5 9 10 -3 6 -10 10 -16 10 -5
0 -9 -4 -9 -10z"/>
<path d="M4602 2761 c2 -14 9 -26 16 -29 17 -5 15 10 -3 34 -15 18 -15 18 -13
-5z"/>
<path d="M440 2629 c0 -5 5 -7 10 -4 6 3 10 8 10 11 0 2 -4 4 -10 4 -5 0 -10
-5 -10 -11z"/>
<path d="M5640 2579 c0 -5 5 -7 10 -4 6 3 10 8 10 11 0 2 -4 4 -10 4 -5 0 -10
-5 -10 -11z"/>
<path d="M5743 2573 c9 -2 25 -2 35 0 9 3 1 5 -18 5 -19 0 -27 -2 -17 -5z"/>
<path d="M5340 2550 c0 -5 5 -10 10 -10 6 0 10 5 10 10 0 6 -4 10 -10 10 -5 0
-10 -4 -10 -10z"/>
<path d="M349 2530 c-9 -5 -26 -28 -38 -50 -18 -36 -19 -41 -5 -47 23 -9 74
45 74 79 0 30 -5 33 -31 18z"/>
<path d="M707 2526 c-21 -22 -21 -30 0 -51 14 -14 14 -22 5 -49 -17 -45 -16
-48 20 -108 18 -29 32 -54 33 -55 0 -1 17 4 37 10 45 14 68 51 57 90 -6 21 -1
40 18 78 18 33 23 53 16 60 -14 14 -38 2 -53 -26 l-13 -24 -32 25 c-17 13 -36
24 -42 24 -5 0 -14 10 -19 21 -9 20 -11 21 -27 5z"/>
<path d="M5990 2520 c0 -5 7 -10 15 -10 8 0 15 5 15 10 0 6 -7 10 -15 10 -8 0
-15 -4 -15 -10z"/>
<path d="M5580 2510 c0 -5 7 -10 16 -10 8 0 12 5 9 10 -3 6 -10 10 -16 10 -5
0 -9 -4 -9 -10z"/>
<path d="M2787 2486 c-8 -19 15 -37 32 -26 17 10 7 40 -13 40 -7 0 -16 -6 -19
-14z"/>
<path d="M5827 2473 c-4 -3 -7 -11 -7 -17 0 -6 5 -5 12 2 6 6 9 14 7 17 -3 3
-9 2 -12 -2z"/>
<path d="M5780 2395 c0 -8 5 -15 10 -15 6 0 10 7 10 15 0 8 -4 15 -10 15 -5 0
-10 -7 -10 -15z"/>
<path d="M4964 2343 c-3 -10 -10 -26 -15 -35 -12 -24 -12 -25 11 -31 18 -5 20
0 20 39 0 46 -7 57 -16 27z"/>
<path d="M570 2239 c0 -30 12 -46 53 -70 13 -7 17 -6 17 6 0 9 -8 19 -17 22
-26 9 -34 25 -21 41 9 10 8 16 -3 23 -23 15 -29 10 -29 -22z"/>
<path d="M4957 2245 c-17 -16 -17 -19 -3 -33 20 -20 28 -11 24 24 -3 27 -4 27
-21 9z"/>
<path d="M6140 2235 c0 -8 5 -15 10 -15 6 0 10 7 10 15 0 8 -4 15 -10 15 -5 0
-10 -7 -10 -15z"/>
<path d="M6065 2200 c4 -6 11 -8 16 -5 14 9 11 15 -7 15 -8 0 -12 -5 -9 -10z"/>
<path d="M4915 2169 c-8 -26 6 -42 28 -33 20 7 22 25 5 42 -17 17 -26 15 -33
-9z"/>
<path d="M6125 2170 c3 -5 15 -10 26 -10 11 0 17 5 14 10 -3 6 -15 10 -26 10
-11 0 -17 -4 -14 -10z"/>
<path d="M6220 2166 c0 -9 40 -13 46 -5 3 5 -6 9 -20 9 -14 0 -26 -2 -26 -4z"/>
<path d="M126 2152 c-2 -4 -1 -14 5 -22 7 -12 9 -10 9 8 0 23 -5 28 -14 14z"/>
<path d="M6170 2110 c0 -6 7 -10 15 -10 8 0 15 2 15 4 0 2 -7 6 -15 10 -8 3
-15 1 -15 -4z"/>
<path d="M60 2060 c0 -5 5 -10 10 -10 6 0 10 5 10 10 0 6 -4 10 -10 10 -5 0
-10 -4 -10 -10z"/>
<path d="M6090 2050 c0 -5 5 -10 10 -10 6 0 10 5 10 10 0 6 -4 10 -10 10 -5 0
-10 -4 -10 -10z"/>
<path d="M660 2021 c0 -12 -4 -21 -9 -21 -5 0 -13 -9 -16 -21 -12 -37 2 -31
23 10 13 24 17 43 12 46 -6 3 -10 -3 -10 -14z"/>
<path d="M6310 2014 c0 -14 30 -33 44 -28 23 9 20 21 -6 28 -29 7 -38 7 -38 0z"/>
<path d="M6110 2002 c0 -14 11 -21 26 -15 8 3 11 9 8 14 -7 11 -34 12 -34 1z"/>
<path d="M6480 1994 c0 -8 5 -12 10 -9 6 4 8 11 5 16 -9 14 -15 11 -15 -7z"/>
<path d="M6530 1946 c0 -2 7 -6 15 -10 8 -3 15 -1 15 4 0 6 -7 10 -15 10 -8 0
-15 -2 -15 -4z"/>
<path d="M4856 1903 c-26 -7 -76 -53 -76 -71 0 -20 49 -84 60 -77 4 3 3 18 -3
34 -9 24 -7 34 8 57 11 16 20 31 20 34 0 3 4 11 8 18 5 6 7 11 5 11 -2 -1 -11
-3 -22 -6z"/>
<path d="M30 1860 c0 -5 7 -10 15 -10 8 0 15 5 15 10 0 6 -7 10 -15 10 -8 0
-15 -4 -15 -10z"/>
<path d="M13 1833 c-16 -6 -17 -43 -2 -43 6 0 9 -9 6 -20 -4 -16 0 -20 19 -20
15 0 24 6 24 15 0 8 5 15 10 15 24 0 7 20 -17 21 -18 1 -22 3 -10 6 14 4 16 8
6 19 -12 15 -16 16 -36 7z"/>
<path d="M4878 1809 c-10 -17 -18 -48 -18 -69 0 -21 -4 -41 -10 -45 -13 -8 -1
-35 15 -35 9 0 14 13 13 40 0 26 6 48 17 60 14 16 16 26 9 50 l-9 30 -17 -31z"/>
<path d="M6445 1830 c-3 -5 -1 -10 4 -10 6 0 11 5 11 10 0 6 -2 10 -4 10 -3 0
-8 -4 -11 -10z"/>
<path d="M175 1781 c-10 -20 -24 -31 -42 -33 -23 -2 -29 -8 -31 -35 -4 -39 13
-44 22 -7 11 43 26 14 16 -30 -5 -22 -6 -52 -3 -68 4 -20 2 -28 -9 -28 -10 0
-14 9 -13 30 1 21 -4 31 -17 36 -10 3 -30 16 -45 30 -42 39 -53 19 -53 -98 0
-92 1 -99 18 -93 9 5 38 16 65 25 58 21 87 46 87 76 0 13 4 26 10 29 5 3 9 16
8 28 0 12 2 34 6 48 5 16 3 29 -3 33 -21 13 -11 34 18 39 24 5 28 10 24 27 -8
30 -40 25 -58 -9z"/>
<path d="M6500 1790 c0 -5 5 -10 10 -10 6 0 10 -6 10 -14 0 -13 29 -31 37 -23
8 8 -10 37 -23 37 -8 0 -14 5 -14 10 0 6 -4 10 -10 10 -5 0 -10 -4 -10 -10z"/>
<path d="M4769 1755 c-1 -3 -2 -8 -3 -12 -5 -27 -41 -85 -64 -103 -15 -12 -47
-40 -72 -64 -56 -52 -96 -80 -136 -93 -17 -6 -46 -25 -63 -42 -17 -17 -35 -31
-39 -31 -4 0 -23 -16 -43 -35 -20 -19 -39 -32 -41 -29 -7 6 -68 -16 -68 -25 0
-4 -24 -18 -52 -30 -29 -13 -61 -28 -71 -33 -11 -5 -21 -7 -24 -5 -2 3 -13 -3
-24 -14 -10 -10 -33 -19 -50 -19 -16 0 -28 -4 -25 -9 3 -5 -6 -12 -21 -16 -16
-3 -30 -10 -33 -14 -3 -5 -45 -22 -95 -39 -204 -70 -241 -84 -270 -96 -16 -8
-73 -21 -125 -31 -52 -10 -120 -26 -150 -36 -94 -31 -229 -52 -385 -59 -82 -4
-170 -13 -195 -20 -28 -8 -102 -12 -195 -12 -82 1 -219 -3 -304 -8 -153 -9
-153 -9 -190 15 -31 21 -57 26 -166 36 -142 12 -369 52 -425 76 -19 8 -48 15
-65 15 -16 1 -39 7 -50 14 -11 8 -34 14 -51 14 -17 0 -44 4 -60 10 -16 5 -47
14 -69 19 -22 6 -70 33 -107 60 -44 31 -87 53 -120 61 -30 7 -85 34 -126 61
-40 26 -85 50 -101 54 -17 4 -46 26 -72 56 -25 29 -55 52 -73 57 -17 5 -36 18
-41 29 -6 12 -17 28 -24 37 -7 9 -10 23 -7 32 11 28 -13 44 -65 44 -34 0 -48
4 -46 13 1 6 -5 12 -13 12 -10 0 -15 -10 -15 -30 0 -16 -8 -43 -19 -58 -22
-33 -19 -38 25 -39 19 0 38 -3 42 -5 15 -9 -25 -43 -49 -43 -13 0 -29 -9 -36
-20 -7 -11 -22 -20 -33 -20 -11 -1 -33 -12 -50 -26 l-30 -25 40 7 c22 3 58 13
80 20 22 8 50 14 63 14 12 0 22 5 22 11 0 5 5 7 10 4 19 -12 -10 -47 -35 -43
-21 5 -56 -22 -78 -59 -8 -14 59 -16 85 -2 18 10 48 2 48 -12 0 -5 -12 -14
-27 -20 -16 -6 -41 -23 -58 -38 -16 -16 -42 -31 -57 -35 -28 -6 -40 -36 -15
-36 8 0 41 13 73 30 33 16 69 31 79 33 11 1 26 6 33 10 6 5 12 4 12 -1 0 -6
-29 -34 -64 -63 -36 -30 -65 -57 -65 -62 -1 -4 10 -12 24 -17 15 -6 25 -17 25
-30 0 -25 20 -26 41 -2 10 12 13 25 8 38 -13 32 -10 44 11 44 23 0 24 -4 10
-30 -8 -15 -6 -22 11 -33 21 -15 21 -15 -10 -45 -17 -16 -31 -35 -31 -43 0
-10 3 -10 12 -1 18 18 46 14 58 -7 7 -15 6 -23 -6 -35 -8 -9 -13 -24 -10 -34
5 -13 -6 -27 -39 -52 -25 -19 -45 -42 -45 -52 0 -18 1 -18 22 2 12 11 29 20
38 20 9 0 25 9 35 20 10 11 24 20 31 20 7 0 20 10 28 21 10 14 21 19 32 15 13
-5 15 -9 6 -18 -19 -19 -14 -28 13 -28 14 0 25 4 25 8 0 5 15 9 33 9 17 0 44
4 59 8 43 11 37 -26 -9 -64 -36 -30 -36 -31 -13 -31 31 0 44 9 59 38 16 29 29
28 43 -6 17 -39 18 -39 36 -15 15 19 19 20 35 8 10 -7 20 -26 21 -42 3 -28 28
-43 41 -24 11 18 35 12 35 -9 0 -11 -4 -20 -10 -20 -5 0 -7 -7 -4 -15 4 -10
13 -13 24 -10 19 6 90 -52 90 -74 0 -6 9 -11 20 -11 13 0 22 -9 26 -27 12 -55
13 -58 28 -38 15 21 46 14 46 -10 0 -10 10 -15 28 -15 28 -1 59 -22 78 -55 8
-14 29 -23 73 -30 34 -5 65 -15 69 -20 13 -18 60 -38 80 -33 14 4 24 -3 36
-23 20 -33 31 -36 45 -11 9 16 11 16 41 -1 18 -11 45 -17 65 -16 22 2 41 -3
54 -15 13 -12 27 -16 41 -11 14 4 28 1 39 -9 22 -20 137 -57 155 -50 15 6 111
-20 130 -34 22 -18 84 -21 97 -6 15 18 65 18 72 0 7 -19 138 -17 145 2 5 16
29 16 35 0 4 -10 8 -10 15 1 6 9 20 12 38 8 115 -24 129 -25 137 -11 5 9 21
14 42 12 19 -1 37 1 40 4 4 3 22 2 42 -4 30 -8 40 -6 72 15 l37 25 23 -29 c30
-38 42 -37 39 3 -3 30 -1 32 41 41 30 6 46 5 51 -2 9 -15 40 -3 40 15 0 21 47
41 62 26 15 -15 48 -16 48 -2 0 6 22 10 48 10 42 0 51 4 70 30 13 17 31 30 42
30 23 0 24 -4 10 -29 -8 -15 -6 -17 15 -14 14 3 28 17 36 34 6 17 20 34 30 39
25 14 77 12 81 -2 4 -10 14 -8 40 6 20 11 34 25 31 32 -8 20 19 29 33 10 10
-14 14 -15 21 -4 8 13 62 41 73 38 3 0 4 -10 2 -20 -3 -15 1 -18 15 -13 10 4
21 11 24 16 4 5 23 9 43 10 36 1 49 20 21 31 -18 7 -20 43 -2 49 19 7 64 -23
78 -52 l12 -26 8 35 c4 19 6 37 3 39 -2 2 -4 -1 -4 -7 0 -7 -5 -12 -11 -12 -6
0 -9 12 -7 27 4 35 37 45 45 14 3 -12 13 -21 25 -21 11 0 22 -9 25 -20 9 -36
29 -21 42 31 14 54 34 71 54 46 16 -20 62 -4 53 19 -3 9 -2 12 5 9 6 -4 7 3 3
19 -7 31 6 34 31 6 17 -19 55 -27 67 -15 9 9 -16 55 -29 55 -19 0 -16 37 3 44
13 5 15 2 11 -14 -7 -27 9 -25 45 5 l31 26 21 -21 c24 -21 51 -26 61 -11 3 5
1 12 -5 16 -14 9 -13 65 3 98 15 33 31 38 77 29 33 -7 35 -10 38 -55 3 -44 20
-68 21 -29 0 9 3 32 7 50 3 18 2 38 -4 45 -23 30 -22 81 3 122 25 41 28 40 25
-7 -1 -27 13 -38 24 -19 3 5 14 7 24 4 22 -5 28 33 6 41 -15 6 -20 46 -6 46 5
0 19 -10 32 -22 22 -21 23 -21 37 -2 12 16 11 19 -7 26 -24 9 -24 12 -6 46 8
15 17 38 20 52 3 14 12 34 20 45 14 19 14 19 35 -5 l20 -25 1 33 c0 18 6 41
12 52 10 15 10 22 0 32 -10 10 -15 10 -20 1 -11 -17 -28 -2 -30 27 0 14 2 20
6 14 4 -5 19 -11 35 -12 30 -2 35 12 13 44 -8 11 -16 31 -18 44 -2 17 -10 25
-23 26 -11 1 -26 2 -34 3 -11 1 -11 4 -1 16 9 11 16 12 25 5 6 -5 14 -7 18 -4
10 10 47 -7 47 -21 0 -8 9 -29 19 -46 16 -26 20 -28 23 -13 4 21 -13 94 -22
94 -3 0 -11 4 -19 9 -11 7 -10 13 7 31 11 12 22 36 25 53 3 18 8 43 13 56 6
22 5 23 -19 19 -19 -4 -27 -1 -27 9 0 8 5 11 10 8 6 -3 10 -3 11 2 0 4 1 25 3
46 2 26 -1 37 -11 37 -7 0 -13 5 -13 10 0 10 -19 14 -21 5z m-19 -136 c0 -5
-4 -9 -8 -9 -5 0 -18 -9 -30 -20 -21 -20 -22 -20 -22 -2 0 10 4 22 10 28 13
13 50 15 50 3z m40 -34 c10 -13 9 -15 -8 -15 -15 0 -20 5 -16 15 4 8 7 15 9
15 1 0 8 -7 15 -15z m-73 -97 c-3 -8 -6 -5 -6 6 -1 11 2 17 5 13 3 -3 4 -12 1
-19z m-67 -303 c0 -19 -4 -35 -9 -35 -8 0 -9 19 -2 63 3 21 11 2 11 -28z m-31
-97 c1 -5 -6 -8 -15 -8 -11 0 -14 5 -10 16 3 9 6 21 7 27 0 12 17 -20 18 -35z
m-949 -228 c-8 -5 -19 -10 -25 -10 -5 0 -3 5 5 10 8 5 20 10 25 10 6 0 3 -5
-5 -10z m635 -10 c3 -6 -1 -13 -10 -16 -19 -8 -30 0 -20 15 8 14 22 14 30 1z
m-62 -55 c-3 -9 -8 -14 -10 -11 -3 3 -2 9 2 15 9 16 15 13 8 -4z m-223 -162
c0 -5 -7 -16 -14 -26 -13 -17 -14 -16 -19 2 -3 11 -2 22 1 25 8 9 32 7 32 -1z"/>
<path d="M4927 1700 c-3 -11 -1 -20 4 -20 5 0 9 9 9 20 0 11 -2 20 -4 20 -2 0
-6 -9 -9 -20z"/>
<path d="M260 1638 c0 -7 4 -20 10 -28 7 -12 12 -11 30 5 16 14 17 20 8 27
-20 12 -48 10 -48 -4z"/>
<path d="M4884 1586 c-8 -22 -2 -27 16 -16 12 7 12 12 3 21 -10 10 -14 9 -19
-5z"/>
<path d="M4850 1294 c0 -14 4 -23 10 -19 6 3 10 15 10 26 0 10 -4 19 -10 19
-5 0 -10 -12 -10 -26z"/>
<path d="M3735 1240 c-18 -20 -17 -20 9 -20 15 0 29 6 32 14 3 8 12 12 20 9 8
-3 14 0 14 6 0 19 -56 12 -75 -9z"/>
<path d="M300 1080 c0 -5 5 -10 10 -10 6 0 10 5 10 10 0 6 -4 10 -10 10 -5 0
-10 -4 -10 -10z"/>
<path d="M4730 1046 c0 -8 -3 -23 -7 -33 -6 -16 -5 -16 10 -4 19 15 22 37 7
46 -5 3 -10 0 -10 -9z"/>
<path d="M4640 958 c0 -19 2 -20 10 -8 13 19 13 30 0 30 -5 0 -10 -10 -10 -22z"/>
<path d="M4550 941 c0 -5 5 -13 10 -16 6 -3 10 -2 10 4 0 5 -4 13 -10 16 -5 3
-10 2 -10 -4z"/>
<path d="M380 885 c-21 -22 -21 -25 -6 -31 17 -6 66 29 66 48 0 17 -38 7 -60
-17z"/>
<path d="M4610 860 c0 -13 5 -20 13 -17 6 2 12 10 12 17 0 7 -6 15 -12 18 -8
2 -13 -5 -13 -18z"/>
<path d="M4430 790 c0 -11 5 -20 10 -20 6 0 10 9 10 20 0 11 -4 20 -10 20 -5
0 -10 -9 -10 -20z"/>
<path d="M3447 343 c-12 -11 -8 -23 8 -23 8 0 15 7 15 15 0 16 -12 20 -23 8z"/>
</g>
</svg>
